<?xml version="1.0" encoding="UTF-8" standalone="no"?>
<!DOCTYPE svg PUBLIC "-//W3C//DTD SVG 1.1//EN"
 "http://www.w3.org/Graphics/SVG/1.1/DTD/svg11.dtd">
<!-- Generated by graphviz version 14.1.2 (20260126.1125)
 -->
<!-- Pages: 1 -->
<svg width="253pt" height="337pt"
 viewBox="0.00 0.00 253.00 337.00" xmlns="http://www.w3.org/2000/svg" xmlns:xlink="http://www.w3.org/1999/xlink">
<g id="graph0" class="graph" transform="scale(1 1) rotate(0) translate(4 333)">
<polygon fill="white" stroke="none" points="-4,4 -4,-333 249,-333 249,4 -4,4"/>
<text xml:space="preserve" text-anchor="middle" x="122.5" y="-311.7" font-family="Times,serif" font-size="14.00">SAR decision tree (alpha=0.05)</text>
<!-- n0 -->
<g id="node1" class="node">
<title>n0</title>
<ellipse fill="#ffd966" stroke="black" stroke-width="2" cx="45" cy="-279" rx="44.19" ry="24.75"/>
<text xml:space="preserve" text-anchor="middle" x="45" y="-282.05" font-family="Helvetica,sans-Serif" font-size="11.00">LM&#45;Error</text>
<text xml:space="preserve" text-anchor="middle" x="45" y="-268.55" font-family="Helvetica,sans-Serif" font-size="11.00">p=0.000</text>
</g>
<!-- leaf0 -->
<g id="node2" class="node">
<title>leaf0</title>
<polygon fill="#9be29b" stroke="black" stroke-width="2" points="54,-205.5 0,-205.5 0,-169.5 54,-169.5 54,-205.5"/>
<text xml:space="preserve" text-anchor="middle" x="27" y="-183.8" font-family="Helvetica,sans-Serif" font-size="11.00">SARAR</text>
</g>
<!-- n0&#45;&gt;leaf0 -->
<g id="edge1" class="edge">
<title>n0&#45;&gt;leaf0</title>
<path fill="none" stroke="#cc3333" stroke-width="2" d="M40.18,-254.01C37.98,-243.07 35.35,-230 33.02,-218.43"/>
<polygon fill="#cc3333" stroke="#cc3333" stroke-width="2" points="36.47,-217.82 31.06,-208.71 29.6,-219.2 36.47,-217.82"/>
<text xml:space="preserve" text-anchor="middle" x="43.66" y="-226.75" font-family="Helvetica,sans-Serif" font-size="10.00">sig</text>
</g>
<!-- n1 -->
<g id="node3" class="node">
<title>n1</title>
<ellipse fill="white" stroke="black" cx="132" cy="-187.5" rx="60" ry="18"/>
<text xml:space="preserve" text-anchor="middle" x="132" y="-183.8" font-family="Helvetica,sans-Serif" font-size="11.00">Robust&#45;LM&#45;WX</text>
</g>
<!-- n0&#45;&gt;n1 -->
<g id="edge2" class="edge">
<title>n0&#45;&gt;n1</title>
<path fill="none" stroke="#888888" d="M65.62,-256.79C78.35,-243.69 94.74,-226.83 108.05,-213.14"/>
<polygon fill="#888888" stroke="#888888" points="110.36,-215.78 114.82,-206.17 105.34,-210.9 110.36,-215.78"/>
<text xml:space="preserve" text-anchor="middle" x="112.79" y="-226.75" font-family="Helvetica,sans-Serif" font-size="10.00">not sig</text>
</g>
<!-- leaf1 -->
<g id="node4" class="node">
<title>leaf1</title>
<polygon fill="#f0f0f0" stroke="black" points="130,-120.75 76,-120.75 76,-84.75 130,-84.75 130,-120.75"/>
<text xml:space="preserve" text-anchor="middle" x="103" y="-99.05" font-family="Helvetica,sans-Serif" font-size="11.00">SDM</text>
</g>
<!-- n1&#45;&gt;leaf1 -->
<g id="edge3" class="edge">
<title>n1&#45;&gt;leaf1</title>
<path fill="none" stroke="#888888" d="M125.99,-169.35C122.21,-158.55 117.23,-144.35 112.87,-131.92"/>
<polygon fill="#888888" stroke="#888888" points="116.21,-130.87 109.6,-122.59 109.61,-133.18 116.21,-130.87"/>
<text xml:space="preserve" text-anchor="middle" x="126.36" y="-142" font-family="Helvetica,sans-Serif" font-size="10.00">sig</text>
</g>
<!-- n2 -->
<g id="node5" class="node">
<title>n2</title>
<ellipse fill="white" stroke="black" cx="182" cy="-102.75" rx="33.82" ry="18"/>
<text xml:space="preserve" text-anchor="middle" x="182" y="-99.05" font-family="Helvetica,sans-Serif" font-size="11.00">LM&#45;WX</text>
</g>
<!-- n1&#45;&gt;n2 -->
<g id="edge4" class="edge">
<title>n1&#45;&gt;n2</title>
<path fill="none" stroke="#888888" d="M142.36,-169.35C149.22,-158 158.35,-142.88 166.12,-130.02"/>
<polygon fill="#888888" stroke="#888888" points="169.04,-131.97 171.21,-121.6 163.04,-128.35 169.04,-131.97"/>
<text xml:space="preserve" text-anchor="middle" x="176.49" y="-142" font-family="Helvetica,sans-Serif" font-size="10.00">not sig</text>
</g>
<!-- leaf2 -->
<g id="node6" class="node">
<title>leaf2</title>
<polygon fill="#f0f0f0" stroke="black" points="173,-36 119,-36 119,0 173,0 173,-36"/>
<text xml:space="preserve" text-anchor="middle" x="146" y="-14.3" font-family="Helvetica,sans-Serif" font-size="11.00">SDM</text>
</g>
<!-- n2&#45;&gt;leaf2 -->
<g id="edge5" class="edge">
<title>n2&#45;&gt;leaf2</title>
<path fill="none" stroke="#888888" d="M174.71,-85C169.95,-74.05 163.6,-59.46 158.09,-46.79"/>
<polygon fill="#888888" stroke="#888888" points="161.32,-45.45 154.13,-37.68 154.91,-48.24 161.32,-45.45"/>
<text xml:space="preserve" text-anchor="middle" x="173.28" y="-57.25" font-family="Helvetica,sans-Serif" font-size="10.00">sig</text>
</g>
<!-- leaf3 -->
<g id="node7" class="node">
<title>leaf3</title>
<polygon fill="#f0f0f0" stroke="black" points="245,-36 191,-36 191,0 245,0 245,-36"/>
<text xml:space="preserve" text-anchor="middle" x="218" y="-14.3" font-family="Helvetica,sans-Serif" font-size="11.00">SAR</text>
</g>
<!-- n2&#45;&gt;leaf3 -->
<g id="edge6" class="edge">
<title>n2&#45;&gt;leaf3</title>
<path fill="none" stroke="#888888" d="M189.29,-85C194.05,-74.05 200.4,-59.46 205.91,-46.79"/>
<polygon fill="#888888" stroke="#888888" points="209.09,-48.24 209.87,-37.68 202.68,-45.45 209.09,-48.24"/>
<text xml:space="preserve" text-anchor="middle" x="218.66" y="-57.25" font-family="Helvetica,sans-Serif" font-size="10.00">not sig</text>
</g>
</g>
</svg>