<?xml version="1.0" encoding="UTF-8" standalone="no"?>
<!DOCTYPE svg PUBLIC "-//W3C//DTD SVG 1.1//EN"
 "http://www.w3.org/Graphics/SVG/1.1/DTD/svg11.dtd">
<!-- Generated by graphviz version 14.1.2 (20260126.1125)
 -->
<!-- Pages: 1 -->
<svg width="396pt" height="266pt"
 viewBox="0.00 0.00 396.00 266.00" xmlns="http://www.w3.org/2000/svg" xmlns:xlink="http://www.w3.org/1999/xlink">
<g id="graph0" class="graph" transform="scale(1 1) rotate(0) translate(4 261.74)">
<polygon fill="white" stroke="none" points="-4,4 -4,-261.74 391.94,-261.74 391.94,4 -4,4"/>
<text xml:space="preserve" text-anchor="middle" x="193.97" y="-240.44" font-family="Times,serif" font-size="14.00">SLX decision tree (alpha=0.05)</text>
<!-- n0 -->
<g id="node1" class="node">
<title>n0</title>
<ellipse fill="#ffd966" stroke="black" stroke-width="2" cx="187.65" cy="-207.75" rx="88.74" ry="24.75"/>
<text xml:space="preserve" text-anchor="middle" x="187.65" y="-210.8" font-family="Helvetica,sans-Serif" font-size="11.00">Robust&#45;LM&#45;Lag&#45;SDM</text>
<text xml:space="preserve" text-anchor="middle" x="187.65" y="-197.3" font-family="Helvetica,sans-Serif" font-size="11.00">p=0.085</text>
</g>
<!-- n1 -->
<g id="node2" class="node">
<title>n1</title>
<ellipse fill="white" stroke="black" cx="86.65" cy="-109.5" rx="86.65" ry="18"/>
<text xml:space="preserve" text-anchor="middle" x="86.65" y="-105.8" font-family="Helvetica,sans-Serif" font-size="11.00">Robust&#45;LM&#45;Error&#45;SDEM</text>
</g>
<!-- n0&#45;&gt;n1 -->
<g id="edge1" class="edge">
<title>n0&#45;&gt;n1</title>
<path fill="none" stroke="#888888" d="M163.46,-183.69C148.1,-169.05 128.23,-150.12 112.54,-135.17"/>
<polygon fill="#888888" stroke="#888888" points="115.07,-132.75 105.41,-128.38 110.24,-137.81 115.07,-132.75"/>
<text xml:space="preserve" text-anchor="middle" x="150.32" y="-155.5" font-family="Helvetica,sans-Serif" font-size="10.00">sig</text>
</g>
<!-- n2 -->
<g id="node5" class="node">
<title>n2</title>
<ellipse fill="#ffd966" stroke="black" stroke-width="2" cx="289.65" cy="-109.5" rx="98.29" ry="24.75"/>
<text xml:space="preserve" text-anchor="middle" x="289.65" y="-112.55" font-family="Helvetica,sans-Serif" font-size="11.00">Robust&#45;LM&#45;Error&#45;SDEM</text>
<text xml:space="preserve" text-anchor="middle" x="289.65" y="-99.05" font-family="Helvetica,sans-Serif" font-size="11.00">p=0.450</text>
</g>
<!-- n0&#45;&gt;n2 -->
<g id="edge4" class="edge">
<title>n0&#45;&gt;n2</title>
<path fill="none" stroke="#cc3333" stroke-width="2" d="M212.08,-183.69C225.23,-171.28 241.65,-155.79 255.99,-142.26"/>
<polygon fill="#cc3333" stroke="#cc3333" stroke-width="2" points="257.99,-145.18 262.86,-135.78 253.19,-140.09 257.99,-145.18"/>
<text xml:space="preserve" text-anchor="middle" x="261.26" y="-155.5" font-family="Helvetica,sans-Serif" font-size="10.00">not sig</text>
</g>
<!-- leaf0 -->
<g id="node3" class="node">
<title>leaf0</title>
<polygon fill="#f0f0f0" stroke="black" points="94.65,-36 30.65,-36 30.65,0 94.65,0 94.65,-36"/>
<text xml:space="preserve" text-anchor="middle" x="62.65" y="-14.3" font-family="Helvetica,sans-Serif" font-size="11.00">MANSAR</text>
</g>
<!-- n1&#45;&gt;leaf0 -->
<g id="edge2" class="edge">
<title>n1&#45;&gt;leaf0</title>
<path fill="none" stroke="#888888" d="M82.02,-91.24C78.67,-78.74 74.06,-61.56 70.18,-47.09"/>
<polygon fill="#888888" stroke="#888888" points="73.63,-46.42 67.66,-37.67 66.87,-48.23 73.63,-46.42"/>
<text xml:space="preserve" text-anchor="middle" x="82.49" y="-57.25" font-family="Helvetica,sans-Serif" font-size="10.00">sig</text>
</g>
<!-- leaf1 -->
<g id="node4" class="node">
<title>leaf1</title>
<polygon fill="#f0f0f0" stroke="black" points="166.65,-36 112.65,-36 112.65,0 166.65,0 166.65,-36"/>
<text xml:space="preserve" text-anchor="middle" x="139.65" y="-14.3" font-family="Helvetica,sans-Serif" font-size="11.00">SDM</text>
</g>
<!-- n1&#45;&gt;leaf1 -->
<g id="edge3" class="edge">
<title>n1&#45;&gt;leaf1</title>
<path fill="none" stroke="#888888" d="M96.87,-91.24C104.49,-78.37 115.06,-60.53 123.78,-45.8"/>
<polygon fill="#888888" stroke="#888888" points="126.61,-47.89 128.69,-37.51 120.58,-44.33 126.61,-47.89"/>
<text xml:space="preserve" text-anchor="middle" x="134.4" y="-57.25" font-family="Helvetica,sans-Serif" font-size="10.00">not sig</text>
</g>
<!-- leaf2 -->
<g id="node6" class="node">
<title>leaf2</title>
<polygon fill="#f0f0f0" stroke="black" points="267.65,-36 213.65,-36 213.65,0 267.65,0 267.65,-36"/>
<text xml:space="preserve" text-anchor="middle" x="240.65" y="-14.3" font-family="Helvetica,sans-Serif" font-size="11.00">SDEM</text>
</g>
<!-- n2&#45;&gt;leaf2 -->
<g id="edge5" class="edge">
<title>n2&#45;&gt;leaf2</title>
<path fill="none" stroke="#888888" d="M276.52,-84.51C270.07,-72.74 262.28,-58.5 255.6,-46.31"/>
<polygon fill="#888888" stroke="#888888" points="258.69,-44.66 250.81,-37.57 252.55,-48.02 258.69,-44.66"/>
<text xml:space="preserve" text-anchor="middle" x="273.74" y="-57.25" font-family="Helvetica,sans-Serif" font-size="10.00">sig</text>
</g>
<!-- leaf3 -->
<g id="node7" class="node">
<title>leaf3</title>
<polygon fill="#9be29b" stroke="black" stroke-width="2" points="339.65,-36 285.65,-36 285.65,0 339.65,0 339.65,-36"/>
<text xml:space="preserve" text-anchor="middle" x="312.65" y="-14.3" font-family="Helvetica,sans-Serif" font-size="11.00">SLX</text>
</g>
<!-- n2&#45;&gt;leaf3 -->
<g id="edge6" class="edge">
<title>n2&#45;&gt;leaf3</title>
<path fill="none" stroke="#cc3333" stroke-width="2" d="M295.81,-84.51C298.66,-73.45 302.06,-60.22 305.06,-48.55"/>
<polygon fill="#cc3333" stroke="#cc3333" stroke-width="2" points="308.37,-49.73 307.47,-39.17 301.59,-47.98 308.37,-49.73"/>
<text xml:space="preserve" text-anchor="middle" x="319.71" y="-57.25" font-family="Helvetica,sans-Serif" font-size="10.00">not sig</text>
</g>
</g>
</svg>